<svg id="svg" version="1.1" xmlns="http://www.w3.org/2000/svg" style="display: block;" viewBox="0 0 640 640"><path d="M0 0 C211.2 0 422.4 0 640 0 C640 211.2 640 422.4 640 640 C428.8 640 217.6 640 0 640 C0 428.8 0 217.6 0 0 Z " transform="translate(0,0)" style="fill: #000000;"/><path d="M0 0 C9 0 9 0 17 5 C22 12 22 12 22 17 C22.66 17 23.32 17 24 17 C24.66 20.63 25.32 24.26 26 28 C29.62781108 36.01908661 29.62781108 36.01908661 35 42 C43.79101593 56.65169321 40.3867674 76.19508546 37 92 C36.34 92 35.68 92 35 92 C34.34 93.65 33.68 95.3 33 97 C31.35 98.32 29.7 99.64 28 101 C25.32917961 105.59628479 25.32917961 105.59628479 26 114 C28.84310336 122.50315129 28.84310336 122.50315129 35 131 C35 131.66 35 132.32 35 133 C35.66 133 36.32 133 37 133 C40 138 40 138 40 140 C40.66 140 41.32 140 42 140 C66 179 66 179 66 185 C66.66 185 67.32 185 68 185 C83 216.875 83 216.875 83 227 C83.66 227 84.32 227 85 227 C90.24743982 263.73207871 92.60105209 290.75852708 71 321 C45 347 45 347 41 349 C40.01 349 39.02 349 38 349 C39 338 39 338 40 334 C40 330.7 40 327.4 40 324 C35.63012837 319.10377376 35.63012837 319.10377376 20 317 C19.67 316.34 19.34 315.68 19 315 C26.26 314.34 33.52 313.68 41 313 C42.32 312.67 43.64 312.34 45 312 C45.07085967 296.46838286 45.07085967 296.46838286 44 281 C43.34 281 42.68 281 42 281 C40.35 276.38 38.7 271.76 37 267 C29.52671562 253.98133365 29.52671562 253.98133365 20 244 C17.69 241.36 15.38 238.72 13 236 C-2.43685291 221.66787245 -2.43685291 221.66787245 -21 212 C-21 211.34 -21 210.68 -21 210 C-23.31 209.67 -25.62 209.34 -28 209 C-30.64 207.68 -33.28 206.36 -36 205 C-38.31 204.67 -40.62 204.34 -43 204 C-43 203.34 -43 202.68 -43 202 C-59.72458094 200.12591486 -59.72458094 200.12591486 -66 206 C-70.23138692 217.04489597 -70.23138692 217.04489597 -73 229 C-73.66 230.65 -74.32 232.3 -75 234 C-78.22514668 247.84412987 -78.22514668 247.84412987 -75 261 C-72.03 261.66 -69.06 262.32 -66 263 C-53.43600113 273.27963544 -45.71878773 281.74710764 -36 295 C-23.24477064 311.29759489 -23.24477064 311.29759489 -6 322 C-4 325 -4 325 -3 337 C2.46707316 342.46707316 12.27714211 339.63224486 20 340 C20 344 20 344 13 352 C6 356 6 356 -8 357 C-11.96 358.98 -11.96 358.98 -16 361 C-16.66 361 -17.32 361 -18 361 C-18.33 361.99 -18.66 362.98 -19 364 C-20.98 365.32 -22.96 366.64 -25 368 C-28.63 371.3 -32.26 374.6 -36 378 C-50 388 -50 388 -64 395 C-62 391 -62 391 -54 384 C-53.34 384 -52.68 384 -52 384 C-51.34 382.35 -50.68 380.7 -50 379 C-48.68 376.36 -47.36 373.72 -46 371 C-42.87771356 361.63314067 -44.4086282 351.54823082 -46 342 C-46.66 342 -47.32 342 -48 342 C-49.65 338.7 -51.3 335.4 -53 332 C-54.32 330.68 -55.64 329.36 -57 328 C-58.98 328 -60.96 328 -63 328 C-65.38771665 333.35700642 -65.38771665 333.35700642 -66 341 C-66.66 341.66 -67.32 342.32 -68 343 C-72.29 342.67 -76.58 342.34 -81 342 C-81.99 342 -82.98 342 -84 342 C-84 342.66 -84 343.32 -84 344 C-90 348 -90 348 -99 348 C-100.32 346.68 -101.64 345.36 -103 344 C-103 335 -103 335 -102 331 C-111.46666667 330.1 -111.46666667 330.1 -119 337 C-126.34810179 350.22658323 -125.92809571 360.5752343 -124 376 C-123.34 376 -122.68 376 -122 376 C-118 384 -118 384 -118 387 C-117.34 387 -116.68 387 -116 387 C-114 391 -114 391 -114 394 C-116.31 394 -118.62 394 -121 394 C-121 393.34 -121 392.68 -121 392 C-124.3 391.34 -127.6 390.68 -131 390 C-144.06160998 383.46919501 -153.10084079 377.34213647 -164 368 C-168.18462795 365.90768602 -173.32144372 367 -178 367 C-186.7164237 371.35821185 -194.22254338 377.16690753 -202 383 C-217.98586683 387.56739052 -225.14912117 387.87719349 -241 383 C-260.61570311 370.92879809 -274.00078413 356.90795036 -287 338 C-287 337.34 -287 336.68 -287 336 C-287.66 336 -288.32 336 -289 336 C-290.98 332.04 -292.96 328.08 -295 324 C-295.99 322.68 -296.98 321.36 -298 320 C-308.88349173 289.1634401 -308.60350626 260.94268335 -297 230 C-290 221 -290 221 -285 217 C-279.89059961 210.53774984 -279.89059961 210.53774984 -281 199 C-285.93608625 193.16912126 -285.93608625 193.16912126 -295 192 C-301.80040893 185.19959107 -307.04908648 178.25152254 -312 170 C-312 169.34 -312 168.68 -312 168 C-312.66 168 -313.32 168 -314 168 C-346 106.66666667 -346 106.66666667 -346 80 C-345.34 80 -344.68 80 -344 80 C-343.67 77.03 -343.34 74.06 -343 71 C-338 59 -338 59 -329 50 C-307.96597296 40.98541698 -285.2126953 49.86610754 -265 57 C-252.12472553 62.72234421 -240.06987885 69.75807269 -228 77 C-228 77.66 -228 78.32 -228 79 C-226.02 79.66 -224.04 80.32 -222 81 C-220.35 81.66 -218.7 82.32 -217 83 C-217 83.66 -217 84.32 -217 85 C-179.89453399 91.18424434 -140.50978675 85.82352573 -104 78 C-104 77.34 -104 76.68 -104 76 C-101.69 74.68 -99.38 73.36 -97 72 C-95.35 70.68 -93.7 69.36 -92 68 C-87 66 -87 66 -73 66 C-69.37 62.37 -65.74 58.74 -62 55 C-27.28571429 28 -27.28571429 28 -22 28 C-22 27.34 -22 26.68 -22 26 C-19.36 24.02 -16.72 22.04 -14 20 C-4.40371521 12.67082039 -4.40371521 12.67082039 -1 2 C-0.67 1.34 -0.34 0.68 0 0 Z " transform="translate(443,116)" style="fill: #71d742;"/><path d="M0 0 C4.455 1.98 4.455 1.98 9 4 C9 19.66666667 9 35.33333333 9 51 C10.98 51.99 12.96 52.98 15 54 C15.66 54.66 16.32 55.32 17 56 C16.67 57.65 16.34 59.3 16 61 C8 66 8 66 1 67 C1 67.66 1 68.32 1 69 C5.62 69 10.24 69 15 69 C23 74 23 74 26 80 C31.5045046 83.68388401 31.5045046 83.68388401 41 85 C43 88 43 88 42 98 C28.46153846 133.53846154 28.46153846 133.53846154 22 140 C15 139 15 139 10 136 C9.67 149.86 9.34 163.72 9 178 C79.30857607 185.21604399 79.30857607 185.21604399 117 162 C119.39467611 158.69302969 119.39467611 158.69302969 121 153 C127 154 127 154 135 161 C145 175 145 175 146 179 C153.92 179 161.84 179 170 179 C168.68 176.36 167.36 173.72 166 171 C164.59926461 158.39338153 164.43712634 145.67666397 164 133 C158.12570176 112.43995615 154.04068008 105.85695211 142 89 C141.01 87.35 140.02 85.7 139 84 C139.33 82.68 139.66 81.36 140 80 C149.62940851 76.79019716 158.51004415 80.62751104 168 83 C168 83.66 168 84.32 168 85 C169.65 85.33 171.3 85.66 173 86 C177 91 177 91 177 93 C177.66 93 178.32 93 179 93 C188.08586816 120.25760448 191.05313269 147.35388509 181 175 C180.01 175.99 179.02 176.98 178 178 C187.24 178.33 196.48 178.66 206 179 C207 183 207 183 205 195 C203.89059961 205.93682462 203.89059961 205.93682462 207 210 C209.97 210.66 212.94 211.32 216 212 C228.56399887 222.27963544 236.28121227 230.74710764 246 244 C258.75522936 260.29759489 258.75522936 260.29759489 276 271 C278 274 278 274 279 286 C284.46707316 291.46707316 294.27714211 288.63224486 302 289 C302 293 302 293 295 301 C288 305 288 305 274 306 C270.04 307.98 270.04 307.98 266 310 C265.34 310 264.68 310 264 310 C263.67 310.99 263.34 311.98 263 313 C261.02 314.32 259.04 315.64 257 317 C253.37 320.3 249.74 323.6 246 327 C232 337 232 337 218 344 C220 340 220 340 228 333 C228.66 333 229.32 333 230 333 C230.66 331.35 231.32 329.7 232 328 C233.32 325.36 234.64 322.72 236 320 C239.12228644 310.63314067 237.5913718 300.54823082 236 291 C235.34 291 234.68 291 234 291 C232.35 287.7 230.7 284.4 229 281 C227.68 279.68 226.36 278.36 225 277 C223.02 277 221.04 277 219 277 C216.61228335 282.35700642 216.61228335 282.35700642 216 290 C215.34 290.66 214.68 291.32 214 292 C209.71 291.67 205.42 291.34 201 291 C200.01 291 199.02 291 198 291 C198 291.66 198 292.32 198 293 C192 297 192 297 183 297 C181.68 295.68 180.36 294.36 179 293 C179 284 179 284 180 280 C170.53333333 279.1 170.53333333 279.1 163 286 C155.65189821 299.22658323 156.07190429 309.5752343 158 325 C158.66 325 159.32 325 160 325 C164 333 164 333 164 336 C164.66 336 165.32 336 166 336 C168 340 168 340 168 343 C165.69 343 163.38 343 161 343 C161 342.34 161 341.68 161 341 C157.7 340.34 154.4 339.68 151 339 C137.93839002 332.46919501 128.89915921 326.34213647 118 317 C113.81537205 314.90768602 108.67855628 316 104 316 C95.2835763 320.35821185 87.77745662 326.16690753 80 332 C64.01413317 336.56739052 56.85087883 336.87719349 41 332 C21.38429689 319.92879809 7.99921587 305.90795036 -5 287 C-5 286.34 -5 285.68 -5 285 C-5.66 285 -6.32 285 -7 285 C-8.98 281.04 -10.96 277.08 -13 273 C-13.99 271.68 -14.98 270.36 -16 269 C-26.88349173 238.1634401 -26.60350626 209.94268335 -15 179 C-8 170 -8 170 -3 166 C2.10940039 159.53774984 2.10940039 159.53774984 1 148 C-3.93608625 142.16912126 -3.93608625 142.16912126 -13 141 C-19.80040893 134.19959107 -25.04908648 127.25152254 -30 119 C-30 118.34 -30 117.68 -30 117 C-30.66 117 -31.32 117 -32 117 C-64 55.66666667 -64 55.66666667 -64 29 C-63.34 29 -62.68 29 -62 29 C-61.505 24.545 -61.505 24.545 -61 20 C-56 8 -56 8 -47 -1 C-31.24127066 -7.75374114 -15.98213153 -3.55158478 0 0 Z " transform="translate(161,167)" style="fill: #71d742;"/><path d="M0 0 C4.455 1.98 4.455 1.98 9 4 C9 19.66666667 9 35.33333333 9 51 C10.98 51.99 12.96 52.98 15 54 C15.66 54.66 16.32 55.32 17 56 C16.67 57.65 16.34 59.3 16 61 C8 66 8 66 1 67 C1 67.66 1 68.32 1 69 C5.62 69 10.24 69 15 69 C23 74 23 74 26 80 C31.5045046 83.68388401 31.5045046 83.68388401 41 85 C43 88 43 88 42 98 C28.46153846 133.53846154 28.46153846 133.53846154 22 140 C15 139 15 139 10 136 C9.67 149.53 9.34 163.06 9 177 C8.01 177.33 7.02 177.66 6 178 C5.67 216.28 5.34 254.56 5 294 C4.34 294.66 3.68 295.32 3 296 C2.01 294.515 2.01 294.515 1 293 C0.01 292.67 -0.98 292.34 -2 292 C-5 287 -5 287 -5 285 C-5.66 285 -6.32 285 -7 285 C-8.98 281.04 -10.96 277.08 -13 273 C-13.99 271.68 -14.98 270.36 -16 269 C-26.88349173 238.1634401 -26.60350626 209.94268335 -15 179 C-8 170 -8 170 -3 166 C2.10940039 159.53774984 2.10940039 159.53774984 1 148 C-3.93608625 142.16912126 -3.93608625 142.16912126 -13 141 C-19.80040893 134.19959107 -25.04908648 127.25152254 -30 119 C-30 118.34 -30 117.68 -30 117 C-30.66 117 -31.32 117 -32 117 C-64 55.66666667 -64 55.66666667 -64 29 C-63.34 29 -62.68 29 -62 29 C-61.505 24.545 -61.505 24.545 -61 20 C-56 8 -56 8 -47 -1 C-31.24127066 -7.75374114 -15.98213153 -3.55158478 0 0 Z " transform="translate(161,167)" style="fill: #71d742;"/><path d="M0 0 C6 1 6 1 14 8 C24 22 24 22 25 26 C25.66 26 26.32 26 27 26 C31 34 31 34 31 37 C31.66 37 32.32 37 33 37 C36 46 36 46 36 59 C31.88244379 67.23511243 29.01900539 71.15082884 22 77 C11.32204973 92.48754936 11.32204973 92.48754936 7 110 C6.34 110 5.68 110 5 110 C4.67 111.98 4.34 113.96 4 116 C-3.14893647 127.23404302 -10.71759706 138.57253235 -24 143 C-36.375 143.495 -36.375 143.495 -49 144 C-52.84448274 146.09524241 -52.84448274 146.09524241 -54 153 C-54.33 153.33 -54.66 153.66 -55 154 C-57.31 154 -59.62 154 -62 154 C-62.33 153.67 -62.66 153.34 -63 153 C-63 144 -63 144 -59 130 C-65.37257726 132.99133541 -65.37257726 132.99133541 -72 138 C-73.32 138 -74.64 138 -76 138 C-83.63277532 115.10167404 -74.09837569 92.79628729 -65 72 C-49.89231083 47.82769733 -34.31311945 29.4719851 -10 14 C-2.45835115 8.51202742 -2.45835115 8.51202742 0 0 Z " transform="translate(282,320)" style="fill: #000000;"/><path d="M0 0 C14.52814411 1.61423823 25.63995914 8.16441267 37 17 C37.66 18.32 38.32 19.64 39 21 C37.02 22.65 35.04 24.3 33 26 C33.495 27.98 33.495 27.98 34 30 C39.94 31.98 45.88 33.96 52 36 C60 41 60 41 61 45 C58 49 58 49 50 53 C48.35 53 46.7 53 45 53 C45 53.66 45 54.32 45 55 C49.62 55 54.24 55 59 55 C67 60 67 60 70 66 C75.5045046 69.68388401 75.5045046 69.68388401 85 71 C87 74 87 74 86 84 C72.46153846 119.53846154 72.46153846 119.53846154 66 126 C50.47304561 123.78186366 38.94467209 107.36533954 29 96 C21 85 21 85 20 78 C18.4 76.2 18.4 76.2 12 76 C-1.02757156 65.57794275 -2.38534205 50.68794768 -5 35 C-5 7.5 -5 7.5 0 0 Z " transform="translate(117,181)" style="fill: #000000;"/><path d="M0 0 C0.33 0 0.66 0 1 0 C6.24743982 36.73207871 8.60105209 63.75852708 -13 94 C-39 120 -39 120 -43 122 C-43.99 122 -44.98 122 -46 122 C-45 111 -45 111 -44 107 C-44 103.7 -44 100.4 -44 97 C-48.36987163 92.10377376 -48.36987163 92.10377376 -64 90 C-64.33 89.34 -64.66 88.68 -65 88 C-54.11 87.01 -54.11 87.01 -43 86 C-41.02 85.505 -41.02 85.505 -39 85 C-38.92914033 69.46838286 -38.92914033 69.46838286 -40 54 C-40.66 54 -41.32 54 -42 54 C-43.65 49.38 -45.3 44.76 -47 40 C-54.47328438 26.98133365 -54.47328438 26.98133365 -64 17 C-68.04740834 12.37439047 -72.06519431 7.72176683 -76 3 C-2 2 -2 2 0 3 C0 2.01 0 1.02 0 0 Z " transform="translate(527,343)" style="fill: #71d742;"/><path d="M0 0 C1.65 0 3.3 0 5 0 C8 4 8 4 9 14 C19.13801004 14.38649398 19.13801004 14.38649398 33 10 C50.85714286 6.42857143 50.85714286 6.42857143 60 11 C66.45517475 19.60689967 67 20.81386107 67 31 C65.35 35.29 63.7 39.58 62 44 C61.34 44 60.68 44 60 44 C59.01 46.97 59.01 46.97 58 50 C57.34 50 56.68 50 56 50 C55.34 51.32 54.68 52.64 54 54 C47.51351351 61.78378378 47.51351351 61.78378378 39 63 C31.33652561 69.06516266 31.33652561 69.06516266 25 79 C17 90 17 90 12 93 C10.515 92.505 10.515 92.505 9 92 C9 87.71 9 83.42 9 79 C9.66 79 10.32 79 11 79 C11.33 76.36 11.66 73.72 12 71 C18.4399606 58.12007879 24.29056936 49.14103649 38 44 C45.66220176 38.80386373 45.66220176 38.80386373 50 31 C50 27.7 50 24.4 50 21 C49.01 21 48.02 21 47 21 C46.34 23.31 45.68 25.62 45 28 C30.04542049 36.15704337 28.34886226 35 10 35 C3 32 3 32 -4 26 C-6 21 -6 21 -6 9 C-3 3 -3 3 0 0 Z " transform="translate(196,212)" style="fill: #000000;"/><path d="M0 0 C0 0.66 0 1.32 0 2 C2.475 2.495 2.475 2.495 5 3 C9 8 9 8 9 10 C9.66 10 10.32 10 11 10 C20.08586816 37.25760448 23.05313269 64.35388509 13 92 C11 94 11 94 2 95 C-6.30199046 83.93067939 -3.61456085 61.17773527 -4 50 C-9.87429824 29.43995615 -13.95931992 22.85695211 -26 6 C-26.99 4.35 -27.98 2.7 -29 1 C-28.67 -0.32 -28.34 -1.64 -28 -3 C-18.37059149 -6.20980284 -9.48995585 -2.37248896 0 0 Z " transform="translate(329,250)" style="fill: #000000;"/><path d="M0 0 C2 2 2 2 4 9 C13.17540376 10.83508075 22.65171907 10.593553 32 11 C36 16 36 16 36 24 C29.05263158 52.94736842 29.05263158 52.94736842 25 57 C23.02 57 21.04 57 19 57 C15 52 15 52 12 46 C13 37 13 37 17 32 C17.4472136 26.52174919 17.4472136 26.52174919 16 24 C14.02 24 12.04 24 10 24 C9.67 27.3 9.34 30.6 9 34 C8.01 35.32 7.02 36.64 6 38 C-5.03075751 36.4241775 -10.21111046 32.03111163 -19 25 C-19.99 23.68 -20.98 22.36 -22 21 C-20.59715703 11.18009919 -15.40946287 7.17455239 -8 1 C-5 0 -5 0 0 0 Z " transform="translate(420,192)" style="fill: #000000;"/><path d="M0 0 C9 0 9 0 17 5 C22 12 22 12 22 17 C22.66 17 23.32 17 24 17 C24.99 22.445 24.99 22.445 26 28 C29.47825081 35.5527864 29.47825081 35.5527864 33 40 C11.22743827 50.88628087 -15.65995005 41.6571824 -40 42 C-40.66 41.34 -41.32 40.68 -42 40 C-24.66666667 28 -24.66666667 28 -22 28 C-22 27.34 -22 26.68 -22 26 C-19.36 24.02 -16.72 22.04 -14 20 C-4.40371521 12.67082039 -4.40371521 12.67082039 -1 2 C-0.67 1.34 -0.34 0.68 0 0 Z " transform="translate(443,116)" style="fill: #71d742;"/><path d="M0 0 C0 1.32 0 2.64 0 4 C-18.88888889 21 -18.88888889 21 -31 21 C-31 15 -31 15 -25 8 C-15.95124428 3.06431506 -10.22597406 0 0 0 Z " transform="translate(252,475)" style="fill: #000000;"/><path d="M0 0 C0.99 0 1.98 0 3 0 C3 0.66 3 1.32 3 2 C2.34 2 1.68 2 1 2 C1 42.92 1 83.84 1 126 C-3 122 -3 122 -7 115 C-5.35 115.66 -3.7 116.32 -2 117 C-1.67 78.72 -1.34 40.44 -1 1 C-0.67 0.67 -0.34 0.34 0 0 Z " transform="translate(167,344)" style="fill: #71d742;"/></svg>